<svg width="2977" height="2561" viewBox="0 0 2977 2561" fill="none" xmlns="http://www.w3.org/2000/svg">
<circle cx="1205.11" cy="498.244" r="94.0437" fill="#DFDFDF"/>
<circle cx="1205.11" cy="498.244" r="56.2079" fill="white"/>
<circle cx="1205.11" cy="498.244" r="31.4692" fill="#DFDFDF"/>
<circle cx="1212.56" cy="156.449" r="156.436" fill="#DFDFDF"/>
<circle cx="1212.56" cy="156.449" r="93.4987" fill="white"/>
<circle cx="1212.56" cy="156.449" r="52.3472" fill="#DFDFDF"/>
<circle cx="854.033" cy="159.905" r="94.0437" fill="#DFDFDF"/>
<circle cx="854.033" cy="159.905" r="56.2079" fill="white"/>
<circle cx="854.033" cy="159.905" r="31.4692" fill="#DFDFDF"/>
<circle cx="816.197" cy="479.326" r="94.0437" fill="#DFDFDF"/>
<circle cx="816.197" cy="479.326" r="56.2079" fill="white"/>
<circle cx="816.197" cy="479.326" r="31.4692" fill="#DFDFDF"/>
<circle cx="1021.57" cy="481.691" r="57.8451" fill="#DFDFDF"/>
<circle cx="1021.57" cy="481.691" r="34.5728" fill="white"/>
<circle cx="1021.57" cy="481.691" r="19.3563" fill="#DFDFDF"/>
<circle cx="890.232" cy="321.253" r="57.8451" fill="#DFDFDF"/>
<circle cx="890.231" cy="321.253" r="34.5728" fill="white"/>
<circle cx="890.232" cy="321.253" r="19.3563" fill="#DFDFDF"/>
<circle cx="1153.99" cy="358.725" r="37.8358" fill="#DFDFDF"/>
<circle cx="1153.99" cy="358.725" r="22.6136" fill="white"/>
<circle cx="1153.99" cy="358.725" r="12.6607" fill="#DFDFDF"/>
<circle cx="1223.66" cy="778.01" r="94.0437" transform="rotate(-90 1223.66 778.01)" fill="#DFDFDF"/>
<circle cx="1223.66" cy="778.01" r="56.2079" transform="rotate(-90 1223.66 778.01)" fill="white"/>
<circle cx="1223.66" cy="778.01" r="31.4692" transform="rotate(-90 1223.66 778.01)" fill="#DFDFDF"/>
<circle cx="870.95" cy="756.364" r="156.436" transform="rotate(-90 870.95 756.364)" fill="#DFDFDF"/>
<circle cx="870.95" cy="756.364" r="93.4987" transform="rotate(-90 870.95 756.364)" fill="white"/>
<circle cx="870.95" cy="756.364" r="52.3472" transform="rotate(-90 870.95 756.364)" fill="#DFDFDF"/>
<circle cx="885.321" cy="1129.08" r="94.0437" transform="rotate(-90 885.321 1129.08)" fill="#DFDFDF"/>
<circle cx="885.32" cy="1129.08" r="56.2079" transform="rotate(-90 885.32 1129.08)" fill="white"/>
<circle cx="885.32" cy="1129.08" r="31.4692" transform="rotate(-90 885.32 1129.08)" fill="#DFDFDF"/>
<circle cx="1204.74" cy="1166.92" r="94.0437" transform="rotate(-90 1204.74 1166.92)" fill="#DFDFDF"/>
<circle cx="1204.74" cy="1166.92" r="56.2079" transform="rotate(-90 1204.74 1166.92)" fill="white"/>
<circle cx="1204.74" cy="1166.92" r="31.4692" transform="rotate(-90 1204.74 1166.92)" fill="#DFDFDF"/>
<circle cx="1207.11" cy="961.55" r="57.8451" transform="rotate(-90 1207.11 961.55)" fill="#DFDFDF"/>
<circle cx="1207.11" cy="961.55" r="34.5728" transform="rotate(-90 1207.11 961.55)" fill="white"/>
<circle cx="1207.11" cy="961.551" r="19.3563" transform="rotate(-90 1207.11 961.551)" fill="#DFDFDF"/>
<circle cx="1044.85" cy="1000.11" r="57.8451" transform="rotate(-90 1044.85 1000.11)" fill="#DFDFDF"/>
<circle cx="1044.85" cy="1000.11" r="34.5728" transform="rotate(-90 1044.85 1000.11)" fill="white"/>
<circle cx="1044.85" cy="1000.11" r="19.3563" transform="rotate(-90 1044.85 1000.11)" fill="#DFDFDF"/>
<circle cx="1084.14" cy="829.125" r="37.8358" transform="rotate(-90 1084.14 829.125)" fill="#DFDFDF"/>
<circle cx="1084.14" cy="829.125" r="22.6136" transform="rotate(-90 1084.14 829.125)" fill="white"/>
<circle cx="1084.14" cy="829.125" r="12.6607" transform="rotate(-90 1084.14 829.125)" fill="#DFDFDF"/>
<circle cx="107.504" cy="725.246" r="94.0437" transform="rotate(-180 107.504 725.246)" fill="#DFDFDF"/>
<circle cx="107.504" cy="725.246" r="56.2079" transform="rotate(-180 107.504 725.246)" fill="white"/>
<circle cx="107.504" cy="725.246" r="31.4692" transform="rotate(-180 107.504 725.246)" fill="#DFDFDF"/>
<circle cx="156.436" cy="1104.51" r="156.436" transform="rotate(-180 156.436 1104.51)" fill="#DFDFDF"/>
<circle cx="156.436" cy="1104.51" r="93.4987" transform="rotate(-180 156.436 1104.51)" fill="white"/>
<circle cx="156.436" cy="1104.51" r="52.3472" transform="rotate(-180 156.436 1104.51)" fill="#DFDFDF"/>
<circle cx="628.11" cy="1016.65" r="94.0437" transform="rotate(-180 628.11 1016.65)" fill="#DFDFDF"/>
<circle cx="628.11" cy="1016.65" r="56.2079" transform="rotate(-180 628.11 1016.65)" fill="white"/>
<circle cx="628.11" cy="1016.65" r="31.4692" transform="rotate(-180 628.11 1016.65)" fill="#DFDFDF"/>
<circle cx="581.179" cy="791.095" r="94.0437" transform="rotate(-180 581.179 791.095)" fill="#DFDFDF"/>
<circle cx="581.179" cy="791.095" r="56.2079" transform="rotate(-180 581.179 791.095)" fill="white"/>
<circle cx="581.179" cy="791.095" r="31.4692" transform="rotate(-180 581.179 791.095)" fill="#DFDFDF"/>
<circle cx="425.652" cy="1116.16" r="57.8451" transform="rotate(-180 425.652 1116.16)" fill="#DFDFDF"/>
<circle cx="425.653" cy="1116.16" r="34.5728" transform="rotate(-180 425.653 1116.16)" fill="white"/>
<circle cx="425.653" cy="1116.16" r="19.3563" transform="rotate(-180 425.653 1116.16)" fill="#DFDFDF"/>
<circle cx="325.242" cy="721.79" r="57.8451" transform="rotate(-180 325.242 721.79)" fill="#DFDFDF"/>
<circle cx="325.242" cy="721.79" r="34.5728" transform="rotate(-180 325.242 721.79)" fill="white"/>
<circle cx="325.242" cy="721.79" r="19.3563" transform="rotate(-180 325.242 721.79)" fill="#DFDFDF"/>
<circle cx="420.923" cy="947.349" r="37.8358" transform="rotate(-180 420.923 947.349)" fill="#DFDFDF"/>
<circle cx="420.923" cy="947.349" r="22.6136" transform="rotate(-180 420.923 947.349)" fill="white"/>
<circle cx="420.923" cy="947.349" r="12.6607" transform="rotate(-180 420.923 947.349)" fill="#DFDFDF"/>
<circle cx="145.34" cy="435.657" r="94.0437" transform="rotate(90 145.34 435.657)" fill="#DFDFDF"/>
<circle cx="145.34" cy="435.657" r="56.2079" transform="rotate(90 145.34 435.657)" fill="white"/>
<circle cx="145.34" cy="435.657" r="31.4692" transform="rotate(90 145.34 435.657)" fill="#DFDFDF"/>
<circle cx="487.135" cy="490.41" r="156.436" transform="rotate(90 487.135 490.41)" fill="#DFDFDF"/>
<circle cx="487.135" cy="490.41" r="93.4987" transform="rotate(90 487.135 490.41)" fill="white"/>
<circle cx="487.135" cy="490.41" r="52.3472" transform="rotate(90 487.135 490.41)" fill="#DFDFDF"/>
<circle cx="483.679" cy="131.88" r="94.0437" transform="rotate(90 483.679 131.88)" fill="#DFDFDF"/>
<circle cx="483.679" cy="131.88" r="56.2079" transform="rotate(90 483.679 131.88)" fill="white"/>
<circle cx="483.679" cy="131.879" r="31.4692" transform="rotate(90 483.679 131.879)" fill="#DFDFDF"/>
<circle cx="164.258" cy="94.0437" r="94.0437" transform="rotate(90 164.258 94.0437)" fill="#DFDFDF"/>
<circle cx="164.258" cy="94.0438" r="56.2079" transform="rotate(90 164.258 94.0438)" fill="white"/>
<circle cx="164.258" cy="94.0436" r="31.4692" transform="rotate(90 164.258 94.0436)" fill="#DFDFDF"/>
<circle cx="667.583" cy="286.679" r="57.8451" transform="rotate(90 667.583 286.679)" fill="#DFDFDF"/>
<circle cx="667.583" cy="286.679" r="34.5728" transform="rotate(90 667.583 286.679)" fill="white"/>
<circle cx="667.583" cy="286.679" r="19.3563" transform="rotate(90 667.583 286.679)" fill="#DFDFDF"/>
<circle cx="297.229" cy="273.946" r="57.8451" transform="rotate(90 297.229 273.946)" fill="#DFDFDF"/>
<circle cx="297.229" cy="273.946" r="34.5728" transform="rotate(90 297.229 273.946)" fill="white"/>
<circle cx="297.229" cy="273.946" r="19.3563" transform="rotate(90 297.229 273.946)" fill="#DFDFDF"/>
<circle cx="253.936" cy="896.78" r="37.8358" transform="rotate(90 253.936 896.78)" fill="#DFDFDF"/>
<circle cx="253.936" cy="896.781" r="22.6136" transform="rotate(90 253.936 896.781)" fill="white"/>
<circle cx="253.936" cy="896.78" r="12.6607" transform="rotate(90 253.936 896.78)" fill="#DFDFDF"/>
<circle cx="1771.89" cy="2023.72" r="94.0437" transform="rotate(-180 1771.89 2023.72)" fill="#DFDFDF"/>
<circle cx="1771.89" cy="2023.72" r="56.2079" transform="rotate(-180 1771.89 2023.72)" fill="white"/>
<circle cx="1771.89" cy="2023.72" r="31.4692" transform="rotate(-180 1771.89 2023.72)" fill="#DFDFDF"/>
<circle cx="1764.44" cy="2365.51" r="156.436" transform="rotate(-180 1764.44 2365.51)" fill="#DFDFDF"/>
<circle cx="1764.44" cy="2365.51" r="93.4987" transform="rotate(-180 1764.44 2365.51)" fill="white"/>
<circle cx="1764.44" cy="2365.51" r="52.3472" transform="rotate(-180 1764.44 2365.51)" fill="#DFDFDF"/>
<circle cx="2122.97" cy="2362.06" r="94.0437" transform="rotate(-180 2122.97 2362.06)" fill="#DFDFDF"/>
<circle cx="2122.97" cy="2362.06" r="56.2079" transform="rotate(-180 2122.97 2362.06)" fill="white"/>
<circle cx="2122.97" cy="2362.06" r="31.4692" transform="rotate(-180 2122.97 2362.06)" fill="#DFDFDF"/>
<circle cx="2160.8" cy="2042.64" r="94.0437" transform="rotate(-180 2160.8 2042.64)" fill="#DFDFDF"/>
<circle cx="2160.8" cy="2042.64" r="56.2079" transform="rotate(-180 2160.8 2042.64)" fill="white"/>
<circle cx="2160.8" cy="2042.64" r="31.4692" transform="rotate(-180 2160.8 2042.64)" fill="#DFDFDF"/>
<circle cx="1955.43" cy="2040.27" r="57.8451" transform="rotate(-180 1955.43 2040.27)" fill="#DFDFDF"/>
<circle cx="1955.43" cy="2040.27" r="34.5728" transform="rotate(-180 1955.43 2040.27)" fill="white"/>
<circle cx="1955.43" cy="2040.27" r="19.3563" transform="rotate(-180 1955.43 2040.27)" fill="#DFDFDF"/>
<circle cx="2086.77" cy="2200.71" r="57.8451" transform="rotate(-180 2086.77 2200.71)" fill="#DFDFDF"/>
<circle cx="2086.77" cy="2200.71" r="34.5728" transform="rotate(-180 2086.77 2200.71)" fill="white"/>
<circle cx="2086.77" cy="2200.71" r="19.3563" transform="rotate(-180 2086.77 2200.71)" fill="#DFDFDF"/>
<circle cx="1823.01" cy="2163.24" r="37.8358" transform="rotate(-180 1823.01 2163.24)" fill="#DFDFDF"/>
<circle cx="1823.01" cy="2163.24" r="22.6136" transform="rotate(-180 1823.01 2163.24)" fill="white"/>
<circle cx="1823.01" cy="2163.24" r="12.6607" transform="rotate(-180 1823.01 2163.24)" fill="#DFDFDF"/>
<circle cx="1753.34" cy="1743.95" r="94.0437" transform="rotate(90 1753.34 1743.95)" fill="#DFDFDF"/>
<circle cx="1753.34" cy="1743.95" r="56.2079" transform="rotate(90 1753.34 1743.95)" fill="white"/>
<circle cx="1753.34" cy="1743.95" r="31.4692" transform="rotate(90 1753.34 1743.95)" fill="#DFDFDF"/>
<circle cx="2106.05" cy="1765.6" r="156.436" transform="rotate(90 2106.05 1765.6)" fill="#DFDFDF"/>
<circle cx="2106.05" cy="1765.6" r="93.4987" transform="rotate(90 2106.05 1765.6)" fill="white"/>
<circle cx="2106.05" cy="1765.6" r="52.3472" transform="rotate(90 2106.05 1765.6)" fill="#DFDFDF"/>
<circle cx="2091.68" cy="1392.88" r="94.0437" transform="rotate(90 2091.68 1392.88)" fill="#DFDFDF"/>
<circle cx="2091.68" cy="1392.88" r="56.2079" transform="rotate(90 2091.68 1392.88)" fill="white"/>
<circle cx="2091.68" cy="1392.88" r="31.4692" transform="rotate(90 2091.68 1392.88)" fill="#DFDFDF"/>
<circle cx="1772.26" cy="1355.04" r="94.0437" transform="rotate(90 1772.26 1355.04)" fill="#DFDFDF"/>
<circle cx="1772.26" cy="1355.04" r="56.2079" transform="rotate(90 1772.26 1355.04)" fill="white"/>
<circle cx="1772.26" cy="1355.04" r="31.4692" transform="rotate(90 1772.26 1355.04)" fill="#DFDFDF"/>
<circle cx="1769.89" cy="1560.41" r="57.8451" transform="rotate(90 1769.89 1560.41)" fill="#DFDFDF"/>
<circle cx="1769.89" cy="1560.41" r="34.5728" transform="rotate(90 1769.89 1560.41)" fill="white"/>
<circle cx="1769.89" cy="1560.41" r="19.3563" transform="rotate(90 1769.89 1560.41)" fill="#DFDFDF"/>
<circle cx="1932.15" cy="1521.85" r="57.8451" transform="rotate(90 1932.15 1521.85)" fill="#DFDFDF"/>
<circle cx="1932.15" cy="1521.85" r="34.5728" transform="rotate(90 1932.15 1521.85)" fill="white"/>
<circle cx="1932.15" cy="1521.85" r="19.3563" transform="rotate(90 1932.15 1521.85)" fill="#DFDFDF"/>
<circle cx="1892.86" cy="1692.84" r="37.8358" transform="rotate(90 1892.86 1692.84)" fill="#DFDFDF"/>
<circle cx="1892.86" cy="1692.84" r="22.6136" transform="rotate(90 1892.86 1692.84)" fill="white"/>
<circle cx="1892.86" cy="1692.84" r="12.6607" transform="rotate(90 1892.86 1692.84)" fill="#DFDFDF"/>
<circle cx="2869.5" cy="1796.72" r="94.0437" fill="#DFDFDF"/>
<circle cx="2869.5" cy="1796.72" r="56.2079" fill="white"/>
<circle cx="2869.5" cy="1796.72" r="31.4692" fill="#DFDFDF"/>
<circle cx="2820.56" cy="1417.45" r="156.436" fill="#DFDFDF"/>
<circle cx="2820.56" cy="1417.45" r="93.4987" fill="white"/>
<circle cx="2820.56" cy="1417.45" r="52.3472" fill="#DFDFDF"/>
<circle cx="2348.89" cy="1505.31" r="94.0437" fill="#DFDFDF"/>
<circle cx="2348.89" cy="1505.31" r="56.2079" fill="white"/>
<circle cx="2348.89" cy="1505.31" r="31.4692" fill="#DFDFDF"/>
<circle cx="2395.82" cy="1730.87" r="94.0437" fill="#DFDFDF"/>
<circle cx="2395.82" cy="1730.87" r="56.2079" fill="white"/>
<circle cx="2395.82" cy="1730.87" r="31.4692" fill="#DFDFDF"/>
<circle cx="2551.35" cy="1405.81" r="57.8451" fill="#DFDFDF"/>
<circle cx="2551.35" cy="1405.81" r="34.5728" fill="white"/>
<circle cx="2551.35" cy="1405.81" r="19.3563" fill="#DFDFDF"/>
<circle cx="2651.76" cy="1800.17" r="57.8451" fill="#DFDFDF"/>
<circle cx="2651.76" cy="1800.17" r="34.5728" fill="white"/>
<circle cx="2651.76" cy="1800.17" r="19.3563" fill="#DFDFDF"/>
<circle cx="2556.08" cy="1574.61" r="37.8358" fill="#DFDFDF"/>
<circle cx="2556.08" cy="1574.61" r="22.6136" fill="white"/>
<circle cx="2556.08" cy="1574.61" r="12.6607" fill="#DFDFDF"/>
<circle cx="2831.66" cy="2086.31" r="94.0437" transform="rotate(-90 2831.66 2086.31)" fill="#DFDFDF"/>
<circle cx="2831.66" cy="2086.31" r="56.2079" transform="rotate(-90 2831.66 2086.31)" fill="white"/>
<circle cx="2831.66" cy="2086.31" r="31.4692" transform="rotate(-90 2831.66 2086.31)" fill="#DFDFDF"/>
<circle cx="2489.86" cy="2031.55" r="156.436" transform="rotate(-90 2489.86 2031.55)" fill="#DFDFDF"/>
<circle cx="2489.86" cy="2031.55" r="93.4987" transform="rotate(-90 2489.86 2031.55)" fill="white"/>
<circle cx="2489.86" cy="2031.55" r="52.3472" transform="rotate(-90 2489.86 2031.55)" fill="#DFDFDF"/>
<circle cx="2493.32" cy="2390.08" r="94.0437" transform="rotate(-90 2493.32 2390.08)" fill="#DFDFDF"/>
<circle cx="2493.32" cy="2390.08" r="56.2079" transform="rotate(-90 2493.32 2390.08)" fill="white"/>
<circle cx="2493.32" cy="2390.08" r="31.4692" transform="rotate(-90 2493.32 2390.08)" fill="#DFDFDF"/>
<circle cx="2812.74" cy="2427.92" r="94.0437" transform="rotate(-90 2812.74 2427.92)" fill="#DFDFDF"/>
<circle cx="2812.74" cy="2427.92" r="56.2079" transform="rotate(-90 2812.74 2427.92)" fill="white"/>
<circle cx="2812.74" cy="2427.92" r="31.4692" transform="rotate(-90 2812.74 2427.92)" fill="#DFDFDF"/>
<circle cx="2309.42" cy="2235.28" r="57.8451" transform="rotate(-90 2309.42 2235.28)" fill="#DFDFDF"/>
<circle cx="2309.42" cy="2235.28" r="34.5728" transform="rotate(-90 2309.42 2235.28)" fill="white"/>
<circle cx="2309.42" cy="2235.28" r="19.3563" transform="rotate(-90 2309.42 2235.28)" fill="#DFDFDF"/>
<circle cx="2679.77" cy="2248.02" r="57.8451" transform="rotate(-90 2679.77 2248.02)" fill="#DFDFDF"/>
<circle cx="2679.77" cy="2248.02" r="34.5728" transform="rotate(-90 2679.77 2248.02)" fill="white"/>
<circle cx="2679.77" cy="2248.02" r="19.3563" transform="rotate(-90 2679.77 2248.02)" fill="#DFDFDF"/>
<circle cx="2723.06" cy="1625.18" r="37.8358" transform="rotate(-90 2723.06 1625.18)" fill="#DFDFDF"/>
<circle cx="2723.06" cy="1625.18" r="22.6136" transform="rotate(-90 2723.06 1625.18)" fill="white"/>
<circle cx="2723.06" cy="1625.18" r="12.6607" transform="rotate(-90 2723.06 1625.18)" fill="#DFDFDF"/>
<circle cx="2574.11" cy="498.244" r="94.0437" fill="#DFDFDF"/>
<circle cx="2574.11" cy="498.244" r="56.2079" fill="white"/>
<circle cx="2574.11" cy="498.244" r="31.4692" fill="#DFDFDF"/>
<circle cx="2581.56" cy="156.449" r="156.436" fill="#DFDFDF"/>
<circle cx="2581.56" cy="156.449" r="93.4987" fill="white"/>
<circle cx="2581.56" cy="156.449" r="52.3472" fill="#DFDFDF"/>
<circle cx="2223.03" cy="159.905" r="94.0437" fill="#DFDFDF"/>
<circle cx="2223.03" cy="159.905" r="56.2079" fill="white"/>
<circle cx="2223.03" cy="159.905" r="31.4692" fill="#DFDFDF"/>
<circle cx="2185.2" cy="479.326" r="94.0437" fill="#DFDFDF"/>
<circle cx="2185.2" cy="479.326" r="56.2079" fill="white"/>
<circle cx="2185.2" cy="479.326" r="31.4692" fill="#DFDFDF"/>
<circle cx="2390.57" cy="481.691" r="57.8451" fill="#DFDFDF"/>
<circle cx="2390.57" cy="481.691" r="34.5728" fill="white"/>
<circle cx="2390.57" cy="481.691" r="19.3563" fill="#DFDFDF"/>
<circle cx="2259.23" cy="321.253" r="57.8451" fill="#DFDFDF"/>
<circle cx="2259.23" cy="321.253" r="34.5728" fill="white"/>
<circle cx="2259.23" cy="321.253" r="19.3563" fill="#DFDFDF"/>
<circle cx="2522.99" cy="358.725" r="37.8358" fill="#DFDFDF"/>
<circle cx="2522.99" cy="358.725" r="22.6136" fill="white"/>
<circle cx="2522.99" cy="358.725" r="12.6607" fill="#DFDFDF"/>
<circle cx="2592.66" cy="778.01" r="94.0437" transform="rotate(-90 2592.66 778.01)" fill="#DFDFDF"/>
<circle cx="2592.66" cy="778.01" r="56.2079" transform="rotate(-90 2592.66 778.01)" fill="white"/>
<circle cx="2592.66" cy="778.01" r="31.4692" transform="rotate(-90 2592.66 778.01)" fill="#DFDFDF"/>
<circle cx="2239.95" cy="756.364" r="156.436" transform="rotate(-90 2239.95 756.364)" fill="#DFDFDF"/>
<circle cx="2239.95" cy="756.364" r="93.4987" transform="rotate(-90 2239.95 756.364)" fill="white"/>
<circle cx="2239.95" cy="756.364" r="52.3472" transform="rotate(-90 2239.95 756.364)" fill="#DFDFDF"/>
<circle cx="2254.32" cy="1129.08" r="94.0437" transform="rotate(-90 2254.32 1129.08)" fill="#DFDFDF"/>
<circle cx="2254.32" cy="1129.08" r="56.2079" transform="rotate(-90 2254.32 1129.08)" fill="white"/>
<circle cx="2254.32" cy="1129.08" r="31.4692" transform="rotate(-90 2254.32 1129.08)" fill="#DFDFDF"/>
<circle cx="2573.74" cy="1166.92" r="94.0437" transform="rotate(-90 2573.74 1166.92)" fill="#DFDFDF"/>
<circle cx="2573.74" cy="1166.92" r="56.2079" transform="rotate(-90 2573.74 1166.92)" fill="white"/>
<circle cx="2573.74" cy="1166.92" r="31.4692" transform="rotate(-90 2573.74 1166.92)" fill="#DFDFDF"/>
<circle cx="2576.11" cy="961.55" r="57.8451" transform="rotate(-90 2576.11 961.55)" fill="#DFDFDF"/>
<circle cx="2576.11" cy="961.55" r="34.5728" transform="rotate(-90 2576.11 961.55)" fill="white"/>
<circle cx="2576.11" cy="961.551" r="19.3563" transform="rotate(-90 2576.11 961.551)" fill="#DFDFDF"/>
<circle cx="2413.85" cy="1000.11" r="57.8451" transform="rotate(-90 2413.85 1000.11)" fill="#DFDFDF"/>
<circle cx="2413.85" cy="1000.11" r="34.5728" transform="rotate(-90 2413.85 1000.11)" fill="white"/>
<circle cx="2413.85" cy="1000.11" r="19.3563" transform="rotate(-90 2413.85 1000.11)" fill="#DFDFDF"/>
<circle cx="2453.14" cy="829.125" r="37.8358" transform="rotate(-90 2453.14 829.125)" fill="#DFDFDF"/>
<circle cx="2453.14" cy="829.125" r="22.6136" transform="rotate(-90 2453.14 829.125)" fill="white"/>
<circle cx="2453.14" cy="829.125" r="12.6607" transform="rotate(-90 2453.14 829.125)" fill="#DFDFDF"/>
<circle cx="1476.5" cy="725.246" r="94.0437" transform="rotate(-180 1476.5 725.246)" fill="#DFDFDF"/>
<circle cx="1476.5" cy="725.246" r="56.2079" transform="rotate(-180 1476.5 725.246)" fill="white"/>
<circle cx="1476.5" cy="725.246" r="31.4692" transform="rotate(-180 1476.5 725.246)" fill="#DFDFDF"/>
<circle cx="1525.44" cy="1104.51" r="156.436" transform="rotate(-180 1525.44 1104.51)" fill="#DFDFDF"/>
<circle cx="1525.44" cy="1104.51" r="93.4987" transform="rotate(-180 1525.44 1104.51)" fill="white"/>
<circle cx="1525.44" cy="1104.51" r="52.3472" transform="rotate(-180 1525.44 1104.51)" fill="#DFDFDF"/>
<circle cx="1997.11" cy="1016.65" r="94.0437" transform="rotate(-180 1997.11 1016.65)" fill="#DFDFDF"/>
<circle cx="1997.11" cy="1016.65" r="56.2079" transform="rotate(-180 1997.11 1016.65)" fill="white"/>
<circle cx="1997.11" cy="1016.65" r="31.4692" transform="rotate(-180 1997.11 1016.65)" fill="#DFDFDF"/>
<circle cx="1950.18" cy="791.095" r="94.0437" transform="rotate(-180 1950.18 791.095)" fill="#DFDFDF"/>
<circle cx="1950.18" cy="791.095" r="56.2079" transform="rotate(-180 1950.18 791.095)" fill="white"/>
<circle cx="1950.18" cy="791.095" r="31.4692" transform="rotate(-180 1950.18 791.095)" fill="#DFDFDF"/>
<circle cx="1794.65" cy="1116.16" r="57.8451" transform="rotate(-180 1794.65 1116.16)" fill="#DFDFDF"/>
<circle cx="1794.65" cy="1116.16" r="34.5728" transform="rotate(-180 1794.65 1116.16)" fill="white"/>
<circle cx="1794.65" cy="1116.16" r="19.3563" transform="rotate(-180 1794.65 1116.16)" fill="#DFDFDF"/>
<circle cx="1694.24" cy="721.79" r="57.8451" transform="rotate(-180 1694.24 721.79)" fill="#DFDFDF"/>
<circle cx="1694.24" cy="721.79" r="34.5728" transform="rotate(-180 1694.24 721.79)" fill="white"/>
<circle cx="1694.24" cy="721.79" r="19.3563" transform="rotate(-180 1694.24 721.79)" fill="#DFDFDF"/>
<circle cx="1789.92" cy="947.349" r="37.8358" transform="rotate(-180 1789.92 947.349)" fill="#DFDFDF"/>
<circle cx="1789.92" cy="947.349" r="22.6136" transform="rotate(-180 1789.92 947.349)" fill="white"/>
<circle cx="1789.92" cy="947.349" r="12.6607" transform="rotate(-180 1789.92 947.349)" fill="#DFDFDF"/>
<circle cx="1514.34" cy="435.657" r="94.0437" transform="rotate(90 1514.34 435.657)" fill="#DFDFDF"/>
<circle cx="1514.34" cy="435.657" r="56.2079" transform="rotate(90 1514.34 435.657)" fill="white"/>
<circle cx="1514.34" cy="435.657" r="31.4692" transform="rotate(90 1514.34 435.657)" fill="#DFDFDF"/>
<circle cx="1856.14" cy="490.41" r="156.436" transform="rotate(90 1856.14 490.41)" fill="#DFDFDF"/>
<circle cx="1856.14" cy="490.41" r="93.4987" transform="rotate(90 1856.14 490.41)" fill="white"/>
<circle cx="1856.14" cy="490.41" r="52.3472" transform="rotate(90 1856.14 490.41)" fill="#DFDFDF"/>
<circle cx="1852.68" cy="131.88" r="94.0437" transform="rotate(90 1852.68 131.88)" fill="#DFDFDF"/>
<circle cx="1852.68" cy="131.88" r="56.2079" transform="rotate(90 1852.68 131.88)" fill="white"/>
<circle cx="1852.68" cy="131.879" r="31.4692" transform="rotate(90 1852.68 131.879)" fill="#DFDFDF"/>
<circle cx="1533.26" cy="94.0437" r="94.0437" transform="rotate(90 1533.26 94.0437)" fill="#DFDFDF"/>
<circle cx="1533.26" cy="94.0438" r="56.2079" transform="rotate(90 1533.26 94.0438)" fill="white"/>
<circle cx="1533.26" cy="94.0436" r="31.4692" transform="rotate(90 1533.26 94.0436)" fill="#DFDFDF"/>
<circle cx="2036.58" cy="286.679" r="57.8451" transform="rotate(90 2036.58 286.679)" fill="#DFDFDF"/>
<circle cx="2036.58" cy="286.679" r="34.5728" transform="rotate(90 2036.58 286.679)" fill="white"/>
<circle cx="2036.58" cy="286.679" r="19.3563" transform="rotate(90 2036.58 286.679)" fill="#DFDFDF"/>
<circle cx="1666.23" cy="273.946" r="57.8451" transform="rotate(90 1666.23 273.946)" fill="#DFDFDF"/>
<circle cx="1666.23" cy="273.946" r="34.5728" transform="rotate(90 1666.23 273.946)" fill="white"/>
<circle cx="1666.23" cy="273.946" r="19.3563" transform="rotate(90 1666.23 273.946)" fill="#DFDFDF"/>
<circle cx="1622.94" cy="896.78" r="37.8358" transform="rotate(90 1622.94 896.78)" fill="#DFDFDF"/>
<circle cx="1622.94" cy="896.781" r="22.6136" transform="rotate(90 1622.94 896.781)" fill="white"/>
<circle cx="1622.94" cy="896.78" r="12.6607" transform="rotate(90 1622.94 896.78)" fill="#DFDFDF"/>
<circle cx="359.895" cy="2062.72" r="94.0437" transform="rotate(-180 359.895 2062.72)" fill="#DFDFDF"/>
<circle cx="359.895" cy="2062.72" r="56.2079" transform="rotate(-180 359.895 2062.72)" fill="white"/>
<circle cx="359.895" cy="2062.72" r="31.4692" transform="rotate(-180 359.895 2062.72)" fill="#DFDFDF"/>
<circle cx="352.436" cy="2404.51" r="156.436" transform="rotate(-180 352.436 2404.51)" fill="#DFDFDF"/>
<circle cx="352.436" cy="2404.51" r="93.4987" transform="rotate(-180 352.436 2404.51)" fill="white"/>
<circle cx="352.436" cy="2404.51" r="52.3472" transform="rotate(-180 352.436 2404.51)" fill="#DFDFDF"/>
<circle cx="710.967" cy="2401.06" r="94.0437" transform="rotate(-180 710.967 2401.06)" fill="#DFDFDF"/>
<circle cx="710.967" cy="2401.06" r="56.2079" transform="rotate(-180 710.967 2401.06)" fill="white"/>
<circle cx="710.967" cy="2401.06" r="31.4692" transform="rotate(-180 710.967 2401.06)" fill="#DFDFDF"/>
<circle cx="748.802" cy="2081.64" r="94.0437" transform="rotate(-180 748.802 2081.64)" fill="#DFDFDF"/>
<circle cx="748.803" cy="2081.64" r="56.2079" transform="rotate(-180 748.803 2081.64)" fill="white"/>
<circle cx="748.803" cy="2081.64" r="31.4692" transform="rotate(-180 748.803 2081.64)" fill="#DFDFDF"/>
<circle cx="543.434" cy="2079.27" r="57.8451" transform="rotate(-180 543.434 2079.27)" fill="#DFDFDF"/>
<circle cx="543.435" cy="2079.27" r="34.5728" transform="rotate(-180 543.435 2079.27)" fill="white"/>
<circle cx="543.435" cy="2079.27" r="19.3563" transform="rotate(-180 543.435 2079.27)" fill="#DFDFDF"/>
<circle cx="674.768" cy="2239.71" r="57.8451" transform="rotate(-180 674.768 2239.71)" fill="#DFDFDF"/>
<circle cx="674.768" cy="2239.71" r="34.5728" transform="rotate(-180 674.768 2239.71)" fill="white"/>
<circle cx="674.768" cy="2239.71" r="19.3563" transform="rotate(-180 674.768 2239.71)" fill="#DFDFDF"/>
<circle cx="411.009" cy="2202.24" r="37.8358" transform="rotate(-180 411.009 2202.24)" fill="#DFDFDF"/>
<circle cx="411.009" cy="2202.24" r="22.6136" transform="rotate(-180 411.009 2202.24)" fill="white"/>
<circle cx="411.009" cy="2202.24" r="12.6607" transform="rotate(-180 411.009 2202.24)" fill="#DFDFDF"/>
<circle cx="341.34" cy="1782.95" r="94.0437" transform="rotate(90 341.34 1782.95)" fill="#DFDFDF"/>
<circle cx="341.34" cy="1782.95" r="56.2079" transform="rotate(90 341.34 1782.95)" fill="white"/>
<circle cx="341.34" cy="1782.95" r="31.4692" transform="rotate(90 341.34 1782.95)" fill="#DFDFDF"/>
<circle cx="694.049" cy="1804.6" r="156.436" transform="rotate(90 694.049 1804.6)" fill="#DFDFDF"/>
<circle cx="694.049" cy="1804.6" r="93.4987" transform="rotate(90 694.049 1804.6)" fill="white"/>
<circle cx="694.05" cy="1804.6" r="52.3472" transform="rotate(90 694.05 1804.6)" fill="#DFDFDF"/>
<circle cx="679.679" cy="1431.88" r="94.0437" transform="rotate(90 679.679 1431.88)" fill="#DFDFDF"/>
<circle cx="679.679" cy="1431.88" r="56.2079" transform="rotate(90 679.679 1431.88)" fill="white"/>
<circle cx="679.679" cy="1431.88" r="31.4692" transform="rotate(90 679.679 1431.88)" fill="#DFDFDF"/>
<circle cx="360.258" cy="1394.04" r="94.0437" transform="rotate(90 360.258 1394.04)" fill="#DFDFDF"/>
<circle cx="360.258" cy="1394.04" r="56.2079" transform="rotate(90 360.258 1394.04)" fill="white"/>
<circle cx="360.258" cy="1394.04" r="31.4692" transform="rotate(90 360.258 1394.04)" fill="#DFDFDF"/>
<circle cx="357.893" cy="1599.41" r="57.8451" transform="rotate(90 357.893 1599.41)" fill="#DFDFDF"/>
<circle cx="357.894" cy="1599.41" r="34.5728" transform="rotate(90 357.894 1599.41)" fill="white"/>
<circle cx="357.894" cy="1599.41" r="19.3563" transform="rotate(90 357.894 1599.41)" fill="#DFDFDF"/>
<circle cx="520.151" cy="1560.85" r="57.8451" transform="rotate(90 520.151 1560.85)" fill="#DFDFDF"/>
<circle cx="520.151" cy="1560.85" r="34.5728" transform="rotate(90 520.151 1560.85)" fill="white"/>
<circle cx="520.151" cy="1560.85" r="19.3563" transform="rotate(90 520.151 1560.85)" fill="#DFDFDF"/>
<circle cx="480.86" cy="1731.84" r="37.8358" transform="rotate(90 480.86 1731.84)" fill="#DFDFDF"/>
<circle cx="480.859" cy="1731.84" r="22.6136" transform="rotate(90 480.859 1731.84)" fill="white"/>
<circle cx="480.86" cy="1731.84" r="12.6607" transform="rotate(90 480.86 1731.84)" fill="#DFDFDF"/>
<circle cx="1457.5" cy="1835.72" r="94.0437" fill="#DFDFDF"/>
<circle cx="1457.5" cy="1835.72" r="56.2079" fill="white"/>
<circle cx="1457.5" cy="1835.72" r="31.4692" fill="#DFDFDF"/>
<circle cx="1408.56" cy="1456.45" r="156.436" fill="#DFDFDF"/>
<circle cx="1408.56" cy="1456.45" r="93.4987" fill="white"/>
<circle cx="1408.56" cy="1456.45" r="52.3472" fill="#DFDFDF"/>
<circle cx="936.89" cy="1544.31" r="94.0437" fill="#DFDFDF"/>
<circle cx="936.89" cy="1544.31" r="56.2079" fill="white"/>
<circle cx="936.89" cy="1544.31" r="31.4692" fill="#DFDFDF"/>
<circle cx="983.821" cy="1769.87" r="94.0437" fill="#DFDFDF"/>
<circle cx="983.821" cy="1769.87" r="56.2079" fill="white"/>
<circle cx="983.821" cy="1769.87" r="31.4692" fill="#DFDFDF"/>
<circle cx="1139.35" cy="1444.81" r="57.8451" fill="#DFDFDF"/>
<circle cx="1139.35" cy="1444.81" r="34.5728" fill="white"/>
<circle cx="1139.35" cy="1444.81" r="19.3563" fill="#DFDFDF"/>
<circle cx="1239.76" cy="1839.17" r="57.8451" fill="#DFDFDF"/>
<circle cx="1239.76" cy="1839.17" r="34.5728" fill="white"/>
<circle cx="1239.76" cy="1839.17" r="19.3563" fill="#DFDFDF"/>
<circle cx="1144.08" cy="1613.61" r="37.8358" fill="#DFDFDF"/>
<circle cx="1144.08" cy="1613.61" r="22.6136" fill="white"/>
<circle cx="1144.08" cy="1613.61" r="12.6607" fill="#DFDFDF"/>
<circle cx="1419.66" cy="2125.31" r="94.0437" transform="rotate(-90 1419.66 2125.31)" fill="#DFDFDF"/>
<circle cx="1419.66" cy="2125.31" r="56.2079" transform="rotate(-90 1419.66 2125.31)" fill="white"/>
<circle cx="1419.66" cy="2125.31" r="31.4692" transform="rotate(-90 1419.66 2125.31)" fill="#DFDFDF"/>
<circle cx="1077.86" cy="2070.55" r="156.436" transform="rotate(-90 1077.86 2070.55)" fill="#DFDFDF"/>
<circle cx="1077.86" cy="2070.55" r="93.4987" transform="rotate(-90 1077.86 2070.55)" fill="white"/>
<circle cx="1077.86" cy="2070.55" r="52.3472" transform="rotate(-90 1077.86 2070.55)" fill="#DFDFDF"/>
<circle cx="1081.32" cy="2429.08" r="94.0437" transform="rotate(-90 1081.32 2429.08)" fill="#DFDFDF"/>
<circle cx="1081.32" cy="2429.08" r="56.2079" transform="rotate(-90 1081.32 2429.08)" fill="white"/>
<circle cx="1081.32" cy="2429.08" r="31.4692" transform="rotate(-90 1081.32 2429.08)" fill="#DFDFDF"/>
<circle cx="1400.74" cy="2466.92" r="94.0437" transform="rotate(-90 1400.74 2466.92)" fill="#DFDFDF"/>
<circle cx="1400.74" cy="2466.92" r="56.2079" transform="rotate(-90 1400.74 2466.92)" fill="white"/>
<circle cx="1400.74" cy="2466.92" r="31.4692" transform="rotate(-90 1400.74 2466.92)" fill="#DFDFDF"/>
<circle cx="897.417" cy="2274.28" r="57.8451" transform="rotate(-90 897.417 2274.28)" fill="#DFDFDF"/>
<circle cx="897.417" cy="2274.28" r="34.5728" transform="rotate(-90 897.417 2274.28)" fill="white"/>
<circle cx="897.417" cy="2274.28" r="19.3563" transform="rotate(-90 897.417 2274.28)" fill="#DFDFDF"/>
<circle cx="1267.77" cy="2287.02" r="57.8451" transform="rotate(-90 1267.77 2287.02)" fill="#DFDFDF"/>
<circle cx="1267.77" cy="2287.02" r="34.5728" transform="rotate(-90 1267.77 2287.02)" fill="white"/>
<circle cx="1267.77" cy="2287.02" r="19.3563" transform="rotate(-90 1267.77 2287.02)" fill="#DFDFDF"/>
<circle cx="1311.06" cy="1664.18" r="37.8358" transform="rotate(-90 1311.06 1664.18)" fill="#DFDFDF"/>
<circle cx="1311.06" cy="1664.18" r="22.6136" transform="rotate(-90 1311.06 1664.18)" fill="white"/>
<circle cx="1311.06" cy="1664.18" r="12.6607" transform="rotate(-90 1311.06 1664.18)" fill="#DFDFDF"/>
</svg>
